<svg width="512" height="512" viewBox="0 0 512 512" fill="none" xmlns="http://www.w3.org/2000/svg">
<g clip-path="url(#clip0_71_5)">
<path d="M256 0L477.703 128V384L256 512L34.2975 384V128L256 0Z" fill="#F47B4F"/>
<mask id="mask0_71_5" style="mask-type:alpha" maskUnits="userSpaceOnUse" x="97" y="97" width="317" height="317">
<rect x="97" y="97" width="317" height="317" fill="#D9D9D9"/>
</mask>
<g mask="url(#mask0_71_5)">
<path d="M219.18 387.583L213.896 345.317C211.034 344.216 208.338 342.895 205.806 341.354C203.275 339.813 200.798 338.162 198.377 336.401L159.082 352.911L122.759 290.172L156.77 264.415C156.55 262.874 156.44 261.389 156.44 259.958V251.042C156.44 249.611 156.55 248.125 156.77 246.584L122.759 220.828L159.082 158.088L198.377 174.599C200.798 172.838 203.33 171.187 205.971 169.646C208.613 168.105 211.255 166.784 213.896 165.683L219.18 123.417H291.825L297.109 165.683C299.971 166.784 302.667 168.105 305.199 169.646C307.73 171.187 310.207 172.838 312.629 174.599L351.923 158.088L388.246 220.828L354.235 246.584C354.455 248.125 354.565 249.611 354.565 251.042V259.958C354.565 261.389 354.345 262.874 353.905 264.415L387.916 290.172L351.593 352.911L312.629 336.401C310.207 338.162 307.675 339.813 305.034 341.354C302.392 342.895 299.75 344.216 297.109 345.317L291.825 387.583H219.18ZM256.163 301.729C268.931 301.729 279.828 297.216 288.854 288.19C297.879 279.165 302.392 268.268 302.392 255.5C302.392 242.732 297.879 231.835 288.854 222.809C279.828 213.784 268.931 209.271 256.163 209.271C243.175 209.271 232.223 213.784 223.307 222.809C214.392 231.835 209.934 242.732 209.934 255.5C209.934 268.268 214.392 279.165 223.307 288.19C232.223 297.216 243.175 301.729 256.163 301.729Z" fill="#17181C"/>
</g>
</g>
<defs>
<clipPath id="clip0_71_5">
<rect width="512" height="512" rx="256" fill="white"/>
</clipPath>
</defs>
</svg>
