<svg width="1200" height="630" viewBox="0 0 1200 630" fill="none" xmlns="http://www.w3.org/2000/svg">
<g clip-path="url(#clip0_71_35)">
<rect width="1200" height="630" fill="#17181C"/>
<g clip-path="url(#clip1_71_35)">
<path d="M192 187L302.851 251V379L192 443L81.1488 379V251L192 187Z" fill="#F47B4F"/>
<mask id="mask0_71_35" style="mask-type:alpha" maskUnits="userSpaceOnUse" x="112" y="235" width="159" height="159">
<rect x="112.5" y="235.5" width="158.5" height="158.5" fill="#D9D9D9"/>
</mask>
<g mask="url(#mask0_71_35)">
<path d="M173.589 380.792L170.948 359.658C169.517 359.108 168.168 358.447 166.903 357.677C165.637 356.907 164.399 356.081 163.188 355.2L143.54 363.456L125.379 332.086L142.385 319.208C142.275 318.437 142.22 317.694 142.22 316.979V312.521C142.22 311.806 142.275 311.063 142.385 310.292L125.379 297.414L143.54 266.044L163.188 274.299C164.399 273.419 165.664 272.593 166.985 271.823C168.306 271.052 169.627 270.392 170.948 269.842L173.589 248.708H209.912L212.554 269.842C213.985 270.392 215.333 271.052 216.599 271.823C217.865 272.593 219.103 273.419 220.314 274.299L239.961 266.044L258.123 297.414L241.117 310.292C241.227 311.063 241.282 311.806 241.282 312.521V316.979C241.282 317.694 241.172 318.437 240.952 319.208L257.958 332.086L239.796 363.456L220.314 355.2C219.103 356.081 217.837 356.907 216.516 357.677C215.196 358.447 213.875 359.108 212.554 359.658L209.912 380.792H173.589ZM192.081 337.864C198.465 337.864 203.913 335.608 208.426 331.095C212.939 326.582 215.196 321.134 215.196 314.75C215.196 308.366 212.939 302.917 208.426 298.405C203.913 293.892 198.465 291.635 192.081 291.635C185.587 291.635 180.111 293.892 175.653 298.405C171.195 302.917 168.966 308.366 168.966 314.75C168.966 321.134 171.195 326.582 175.653 331.095C180.111 335.608 185.587 337.864 192.081 337.864Z" fill="#17181C"/>
</g>
</g>
<path d="M344.345 240.727V246.864H322.152V240.727H344.345ZM328.237 280V236.176C328.237 233.722 328.774 231.685 329.848 230.065C330.922 228.429 332.345 227.21 334.118 226.409C335.891 225.591 337.817 225.182 339.896 225.182C341.43 225.182 342.743 225.31 343.834 225.565C344.925 225.804 345.734 226.026 346.263 226.23L344.473 232.418C344.115 232.315 343.655 232.196 343.092 232.06C342.53 231.906 341.848 231.83 341.047 231.83C339.189 231.83 337.859 232.29 337.058 233.21C336.274 234.131 335.882 235.46 335.882 237.199V280H328.237ZM362.467 280.869C359.978 280.869 357.728 280.409 355.717 279.489C353.705 278.551 352.112 277.196 350.935 275.423C349.776 273.651 349.197 271.477 349.197 268.903C349.197 266.687 349.623 264.864 350.475 263.432C351.327 262 352.478 260.866 353.927 260.031C355.376 259.196 356.995 258.565 358.785 258.139C360.575 257.713 362.398 257.389 364.256 257.168C366.609 256.895 368.518 256.673 369.984 256.503C371.45 256.315 372.515 256.017 373.18 255.608C373.844 255.199 374.177 254.534 374.177 253.614V253.435C374.177 251.202 373.546 249.472 372.285 248.244C371.04 247.017 369.183 246.403 366.711 246.403C364.137 246.403 362.109 246.974 360.626 248.116C359.16 249.241 358.146 250.494 357.583 251.875L350.398 250.239C351.251 247.852 352.495 245.926 354.131 244.46C355.785 242.977 357.685 241.903 359.833 241.239C361.981 240.557 364.239 240.216 366.609 240.216C368.177 240.216 369.839 240.403 371.594 240.778C373.367 241.136 375.021 241.801 376.555 242.773C378.106 243.744 379.376 245.134 380.364 246.94C381.353 248.73 381.847 251.057 381.847 253.92V280H374.381V274.631H374.075C373.58 275.619 372.839 276.591 371.85 277.545C370.862 278.5 369.592 279.293 368.04 279.923C366.489 280.554 364.631 280.869 362.467 280.869ZM364.129 274.733C366.242 274.733 368.049 274.315 369.549 273.48C371.066 272.645 372.217 271.554 373.001 270.207C373.802 268.844 374.202 267.386 374.202 265.835V260.773C373.93 261.045 373.401 261.301 372.617 261.54C371.85 261.761 370.972 261.957 369.984 262.128C368.995 262.281 368.032 262.426 367.094 262.562C366.157 262.682 365.373 262.784 364.742 262.869C363.259 263.057 361.904 263.372 360.677 263.815C359.467 264.259 358.495 264.898 357.762 265.733C357.046 266.551 356.688 267.642 356.688 269.006C356.688 270.898 357.387 272.33 358.785 273.301C360.183 274.256 361.964 274.733 364.129 274.733ZM408.572 280.793C404.771 280.793 401.499 279.932 398.754 278.21C396.027 276.472 393.93 274.077 392.464 271.026C390.999 267.974 390.266 264.48 390.266 260.543C390.266 256.554 391.016 253.034 392.516 249.983C394.016 246.915 396.129 244.52 398.857 242.798C401.584 241.077 404.797 240.216 408.496 240.216C411.479 240.216 414.138 240.77 416.473 241.878C418.808 242.969 420.692 244.503 422.124 246.48C423.572 248.457 424.433 250.767 424.706 253.409H417.266C416.857 251.568 415.919 249.983 414.453 248.653C413.004 247.324 411.061 246.659 408.624 246.659C406.493 246.659 404.626 247.222 403.024 248.347C401.439 249.455 400.203 251.04 399.317 253.102C398.43 255.148 397.987 257.568 397.987 260.364C397.987 263.227 398.422 265.699 399.291 267.778C400.161 269.858 401.388 271.469 402.973 272.611C404.575 273.753 406.459 274.324 408.624 274.324C410.072 274.324 411.385 274.06 412.561 273.531C413.754 272.986 414.751 272.21 415.553 271.205C416.371 270.199 416.942 268.989 417.266 267.574H424.706C424.433 270.114 423.607 272.381 422.226 274.375C420.845 276.369 418.996 277.937 416.678 279.08C414.376 280.222 411.675 280.793 408.572 280.793ZM451.214 240.727V246.864H429.762V240.727H451.214ZM435.515 231.318H443.16V268.469C443.16 269.952 443.381 271.068 443.825 271.818C444.268 272.551 444.839 273.054 445.538 273.327C446.254 273.582 447.029 273.71 447.864 273.71C448.478 273.71 449.015 273.668 449.475 273.582C449.935 273.497 450.293 273.429 450.549 273.378L451.93 279.693C451.487 279.864 450.856 280.034 450.038 280.205C449.219 280.392 448.197 280.494 446.969 280.511C444.958 280.545 443.083 280.188 441.344 279.438C439.606 278.688 438.2 277.528 437.126 275.96C436.052 274.392 435.515 272.423 435.515 270.054V231.318ZM475.791 280.793C472.109 280.793 468.896 279.949 466.152 278.261C463.408 276.574 461.277 274.213 459.76 271.179C458.243 268.145 457.484 264.599 457.484 260.543C457.484 256.469 458.243 252.906 459.76 249.855C461.277 246.804 463.408 244.435 466.152 242.747C468.896 241.06 472.109 240.216 475.791 240.216C479.473 240.216 482.686 241.06 485.43 242.747C488.175 244.435 490.305 246.804 491.822 249.855C493.339 252.906 494.098 256.469 494.098 260.543C494.098 264.599 493.339 268.145 491.822 271.179C490.305 274.213 488.175 276.574 485.43 278.261C482.686 279.949 479.473 280.793 475.791 280.793ZM475.817 274.375C478.203 274.375 480.18 273.744 481.749 272.483C483.317 271.222 484.476 269.543 485.226 267.446C485.993 265.349 486.376 263.04 486.376 260.517C486.376 258.011 485.993 255.71 485.226 253.614C484.476 251.5 483.317 249.804 481.749 248.526C480.18 247.247 478.203 246.608 475.817 246.608C473.413 246.608 471.419 247.247 469.834 248.526C468.266 249.804 467.098 251.5 466.331 253.614C465.581 255.71 465.206 258.011 465.206 260.517C465.206 263.04 465.581 265.349 466.331 267.446C467.098 269.543 468.266 271.222 469.834 272.483C471.419 273.744 473.413 274.375 475.817 274.375ZM502.631 280V240.727H510.021V246.966H510.43C511.146 244.852 512.407 243.19 514.214 241.98C516.038 240.753 518.1 240.139 520.401 240.139C520.879 240.139 521.441 240.156 522.089 240.19C522.754 240.224 523.273 240.267 523.648 240.318V247.631C523.342 247.545 522.796 247.452 522.012 247.349C521.228 247.23 520.444 247.17 519.66 247.17C517.853 247.17 516.242 247.554 514.827 248.321C513.43 249.071 512.322 250.119 511.504 251.466C510.685 252.795 510.276 254.312 510.276 256.017V280H502.631ZM530.264 280V240.727H537.909V280H530.264ZM534.125 234.668C532.795 234.668 531.653 234.224 530.699 233.338C529.761 232.435 529.293 231.361 529.293 230.116C529.293 228.855 529.761 227.781 530.699 226.895C531.653 225.991 532.795 225.54 534.125 225.54C535.455 225.54 536.588 225.991 537.526 226.895C538.48 227.781 538.957 228.855 538.957 230.116C538.957 231.361 538.48 232.435 537.526 233.338C536.588 234.224 535.455 234.668 534.125 234.668ZM564.737 280.793C561.055 280.793 557.842 279.949 555.097 278.261C552.353 276.574 550.222 274.213 548.705 271.179C547.188 268.145 546.43 264.599 546.43 260.543C546.43 256.469 547.188 252.906 548.705 249.855C550.222 246.804 552.353 244.435 555.097 242.747C557.842 241.06 561.055 240.216 564.737 240.216C568.418 240.216 571.631 241.06 574.376 242.747C577.12 244.435 579.251 246.804 580.768 249.855C582.285 252.906 583.043 256.469 583.043 260.543C583.043 264.599 582.285 268.145 580.768 271.179C579.251 274.213 577.12 276.574 574.376 278.261C571.631 279.949 568.418 280.793 564.737 280.793ZM564.762 274.375C567.148 274.375 569.126 273.744 570.694 272.483C572.262 271.222 573.421 269.543 574.171 267.446C574.938 265.349 575.322 263.04 575.322 260.517C575.322 258.011 574.938 255.71 574.171 253.614C573.421 251.5 572.262 249.804 570.694 248.526C569.126 247.247 567.148 246.608 564.762 246.608C562.359 246.608 560.364 247.247 558.779 248.526C557.211 249.804 556.043 251.5 555.276 253.614C554.526 255.71 554.151 258.011 554.151 260.517C554.151 263.04 554.526 265.349 555.276 267.446C556.043 269.543 557.211 271.222 558.779 272.483C560.364 273.744 562.359 274.375 564.762 274.375ZM614.716 254.56V261.182H591.5V254.56H614.716ZM624.905 280V240.727H632.294V246.966H632.703C633.419 244.852 634.68 243.19 636.487 241.98C638.311 240.753 640.374 240.139 642.675 240.139C643.152 240.139 643.714 240.156 644.362 240.19C645.027 240.224 645.547 240.267 645.922 240.318V247.631C645.615 247.545 645.07 247.452 644.286 247.349C643.501 247.23 642.717 247.17 641.933 247.17C640.126 247.17 638.516 247.554 637.101 248.321C635.703 249.071 634.595 250.119 633.777 251.466C632.959 252.795 632.55 254.312 632.55 256.017V280H624.905ZM681.967 250.315L675.038 251.543C674.748 250.656 674.288 249.812 673.657 249.011C673.043 248.21 672.208 247.554 671.151 247.043C670.094 246.531 668.773 246.276 667.188 246.276C665.023 246.276 663.217 246.761 661.768 247.733C660.319 248.687 659.594 249.923 659.594 251.44C659.594 252.753 660.08 253.81 661.052 254.611C662.023 255.412 663.592 256.068 665.756 256.58L671.995 258.011C675.609 258.847 678.302 260.134 680.075 261.872C681.847 263.611 682.734 265.869 682.734 268.648C682.734 271 682.052 273.097 680.688 274.938C679.342 276.761 677.458 278.193 675.038 279.233C672.634 280.273 669.847 280.793 666.677 280.793C662.279 280.793 658.691 279.855 655.913 277.98C653.134 276.088 651.43 273.403 650.799 269.926L658.188 268.801C658.648 270.727 659.594 272.185 661.026 273.173C662.458 274.145 664.325 274.631 666.626 274.631C669.131 274.631 671.134 274.111 672.634 273.071C674.134 272.014 674.884 270.727 674.884 269.21C674.884 267.983 674.424 266.952 673.504 266.116C672.6 265.281 671.211 264.651 669.336 264.224L662.688 262.767C659.023 261.932 656.313 260.602 654.558 258.778C652.819 256.955 651.95 254.645 651.95 251.849C651.95 249.531 652.597 247.503 653.893 245.764C655.188 244.026 656.978 242.67 659.262 241.699C661.546 240.71 664.163 240.216 667.112 240.216C671.356 240.216 674.697 241.136 677.134 242.977C679.572 244.801 681.183 247.247 681.967 250.315Z" fill="white"/>
<path d="M328.807 372L320.852 342.909H324.432L330.511 366.602H330.795L336.989 342.909H340.966L347.159 366.602H347.443L353.523 342.909H357.102L349.148 372H345.511L339.091 348.818H338.864L332.443 372H328.807ZM359.67 372V350.182H362.908V353.477H363.136C363.533 352.398 364.253 351.522 365.295 350.849C366.336 350.177 367.511 349.841 368.817 349.841C369.064 349.841 369.371 349.846 369.741 349.855C370.11 349.865 370.389 349.879 370.579 349.898V353.307C370.465 353.278 370.205 353.236 369.798 353.179C369.4 353.113 368.978 353.08 368.533 353.08C367.473 353.08 366.526 353.302 365.692 353.747C364.869 354.183 364.215 354.789 363.732 355.565C363.259 356.332 363.022 357.208 363.022 358.193V372H359.67ZM374.553 372V350.182H377.905V372H374.553ZM376.257 346.545C375.604 346.545 375.04 346.323 374.567 345.878C374.103 345.433 373.871 344.898 373.871 344.273C373.871 343.648 374.103 343.113 374.567 342.668C375.04 342.223 375.604 342 376.257 342C376.911 342 377.469 342.223 377.933 342.668C378.407 343.113 378.643 343.648 378.643 344.273C378.643 344.898 378.407 345.433 377.933 345.878C377.469 346.323 376.911 346.545 376.257 346.545ZM393.533 350.182V353.023H382.227V350.182H393.533ZM385.522 344.955H388.874V365.75C388.874 366.697 389.012 367.407 389.286 367.881C389.57 368.345 389.93 368.657 390.366 368.818C390.811 368.97 391.28 369.045 391.772 369.045C392.141 369.045 392.444 369.027 392.681 368.989C392.918 368.941 393.107 368.903 393.249 368.875L393.931 371.886C393.704 371.972 393.387 372.057 392.979 372.142C392.572 372.237 392.056 372.284 391.431 372.284C390.484 372.284 389.556 372.08 388.647 371.673C387.747 371.266 386.999 370.646 386.403 369.812C385.816 368.979 385.522 367.928 385.522 366.659V344.955ZM407.489 372.455C405.387 372.455 403.574 371.991 402.049 371.062C400.534 370.125 399.364 368.818 398.54 367.142C397.726 365.456 397.319 363.496 397.319 361.261C397.319 359.027 397.726 357.057 398.54 355.352C399.364 353.638 400.51 352.303 401.978 351.347C403.455 350.381 405.179 349.898 407.148 349.898C408.285 349.898 409.407 350.087 410.515 350.466C411.623 350.845 412.631 351.46 413.54 352.312C414.45 353.155 415.174 354.273 415.714 355.665C416.254 357.057 416.523 358.771 416.523 360.807V362.227H399.705V359.33H413.114C413.114 358.098 412.868 357 412.376 356.034C411.893 355.068 411.201 354.306 410.302 353.747C409.412 353.188 408.361 352.909 407.148 352.909C405.813 352.909 404.658 353.241 403.683 353.903C402.717 354.557 401.973 355.409 401.452 356.46C400.932 357.511 400.671 358.638 400.671 359.841V361.773C400.671 363.42 400.955 364.817 401.523 365.963C402.101 367.099 402.901 367.966 403.924 368.562C404.947 369.15 406.135 369.443 407.489 369.443C408.37 369.443 409.165 369.32 409.876 369.074C410.595 368.818 411.216 368.439 411.737 367.938C412.257 367.426 412.66 366.792 412.944 366.034L416.183 366.943C415.842 368.042 415.269 369.008 414.464 369.841C413.659 370.665 412.665 371.309 411.481 371.773C410.297 372.227 408.967 372.455 407.489 372.455ZM433.327 372V342.909H450.771V346.034H436.85V355.864H449.464V358.989H436.85V372H433.327ZM462.77 372.511C461.387 372.511 460.133 372.251 459.006 371.73C457.879 371.2 456.984 370.438 456.321 369.443C455.658 368.439 455.327 367.227 455.327 365.807C455.327 364.557 455.573 363.544 456.065 362.767C456.558 361.981 457.216 361.366 458.04 360.92C458.864 360.475 459.773 360.144 460.767 359.926C461.771 359.699 462.779 359.519 463.793 359.386C465.118 359.216 466.193 359.088 467.017 359.003C467.85 358.908 468.456 358.752 468.835 358.534C469.223 358.316 469.418 357.937 469.418 357.398V357.284C469.418 355.883 469.034 354.794 468.267 354.017C467.509 353.241 466.359 352.852 464.815 352.852C463.215 352.852 461.96 353.203 461.051 353.903C460.142 354.604 459.503 355.352 459.134 356.148L455.952 355.011C456.52 353.686 457.277 352.653 458.224 351.915C459.181 351.167 460.223 350.646 461.349 350.352C462.486 350.049 463.603 349.898 464.702 349.898C465.402 349.898 466.207 349.983 467.116 350.153C468.035 350.314 468.92 350.651 469.773 351.162C470.634 351.673 471.349 352.445 471.918 353.477C472.486 354.509 472.77 355.892 472.77 357.625V372H469.418V369.045H469.247C469.02 369.519 468.641 370.026 468.111 370.565C467.58 371.105 466.875 371.564 465.994 371.943C465.114 372.322 464.039 372.511 462.77 372.511ZM463.281 369.5C464.607 369.5 465.724 369.24 466.634 368.719C467.552 368.198 468.243 367.526 468.707 366.702C469.181 365.878 469.418 365.011 469.418 364.102V361.034C469.276 361.205 468.963 361.361 468.48 361.503C468.007 361.635 467.457 361.754 466.832 361.858C466.217 361.953 465.616 362.038 465.028 362.114C464.451 362.18 463.982 362.237 463.622 362.284C462.751 362.398 461.937 362.582 461.179 362.838C460.431 363.084 459.825 363.458 459.361 363.96C458.906 364.453 458.679 365.125 458.679 365.977C458.679 367.142 459.11 368.023 459.972 368.619C460.843 369.206 461.946 369.5 463.281 369.5ZM487.752 372.455C485.707 372.455 483.945 371.972 482.468 371.006C480.991 370.04 479.854 368.709 479.059 367.014C478.263 365.319 477.866 363.383 477.866 361.205C477.866 358.989 478.273 357.033 479.087 355.338C479.911 353.634 481.057 352.303 482.525 351.347C484.002 350.381 485.726 349.898 487.695 349.898C489.229 349.898 490.612 350.182 491.843 350.75C493.074 351.318 494.083 352.114 494.869 353.136C495.655 354.159 496.142 355.352 496.332 356.716H492.979C492.724 355.722 492.156 354.841 491.275 354.074C490.404 353.297 489.229 352.909 487.752 352.909C486.445 352.909 485.299 353.25 484.315 353.932C483.339 354.604 482.577 355.556 482.028 356.787C481.488 358.009 481.218 359.443 481.218 361.091C481.218 362.777 481.483 364.244 482.013 365.494C482.553 366.744 483.311 367.715 484.286 368.406C485.271 369.098 486.426 369.443 487.752 369.443C488.623 369.443 489.414 369.292 490.124 368.989C490.835 368.686 491.436 368.25 491.928 367.682C492.421 367.114 492.771 366.432 492.979 365.636H496.332C496.142 366.924 495.674 368.084 494.925 369.116C494.187 370.139 493.207 370.954 491.985 371.56C490.773 372.156 489.362 372.455 487.752 372.455ZM510.721 350.182V353.023H499.414V350.182H510.721ZM502.71 344.955H506.062V365.75C506.062 366.697 506.199 367.407 506.474 367.881C506.758 368.345 507.118 368.657 507.553 368.818C507.998 368.97 508.467 369.045 508.96 369.045C509.329 369.045 509.632 369.027 509.869 368.989C510.105 368.941 510.295 368.903 510.437 368.875L511.119 371.886C510.891 371.972 510.574 372.057 510.167 372.142C509.76 372.237 509.244 372.284 508.619 372.284C507.672 372.284 506.744 372.08 505.835 371.673C504.935 371.266 504.187 370.646 503.59 369.812C503.003 368.979 502.71 367.928 502.71 366.659V344.955ZM524.393 372.455C522.423 372.455 520.695 371.986 519.208 371.048C517.731 370.111 516.576 368.799 515.742 367.114C514.918 365.428 514.506 363.458 514.506 361.205C514.506 358.932 514.918 356.948 515.742 355.253C516.576 353.558 517.731 352.241 519.208 351.304C520.695 350.366 522.423 349.898 524.393 349.898C526.362 349.898 528.086 350.366 529.563 351.304C531.05 352.241 532.205 353.558 533.029 355.253C533.862 356.948 534.279 358.932 534.279 361.205C534.279 363.458 533.862 365.428 533.029 367.114C532.205 368.799 531.05 370.111 529.563 371.048C528.086 371.986 526.362 372.455 524.393 372.455ZM524.393 369.443C525.889 369.443 527.12 369.06 528.086 368.293C529.052 367.526 529.767 366.517 530.231 365.267C530.695 364.017 530.927 362.663 530.927 361.205C530.927 359.746 530.695 358.387 530.231 357.128C529.767 355.868 529.052 354.85 528.086 354.074C527.12 353.297 525.889 352.909 524.393 352.909C522.897 352.909 521.665 353.297 520.7 354.074C519.734 354.85 519.019 355.868 518.555 357.128C518.091 358.387 517.859 359.746 517.859 361.205C517.859 362.663 518.091 364.017 518.555 365.267C519.019 366.517 519.734 367.526 520.7 368.293C521.665 369.06 522.897 369.443 524.393 369.443ZM539.396 372V350.182H542.635V353.477H542.862C543.26 352.398 543.98 351.522 545.021 350.849C546.063 350.177 547.237 349.841 548.544 349.841C548.79 349.841 549.098 349.846 549.467 349.855C549.837 349.865 550.116 349.879 550.305 349.898V353.307C550.192 353.278 549.931 353.236 549.524 353.179C549.126 353.113 548.705 353.08 548.26 353.08C547.199 353.08 546.252 353.302 545.419 353.747C544.595 354.183 543.942 354.789 543.459 355.565C542.985 356.332 542.749 357.208 542.749 358.193V372H539.396ZM554.279 372V350.182H557.631V372H554.279ZM555.984 346.545C555.33 346.545 554.767 346.323 554.293 345.878C553.829 345.433 553.597 344.898 553.597 344.273C553.597 343.648 553.829 343.113 554.293 342.668C554.767 342.223 555.33 342 555.984 342C556.637 342 557.196 342.223 557.66 342.668C558.133 343.113 558.37 343.648 558.37 344.273C558.37 344.898 558.133 345.433 557.66 345.878C557.196 346.323 556.637 346.545 555.984 346.545ZM572.635 372.455C570.665 372.455 568.937 371.986 567.45 371.048C565.973 370.111 564.818 368.799 563.984 367.114C563.161 365.428 562.749 363.458 562.749 361.205C562.749 358.932 563.161 356.948 563.984 355.253C564.818 353.558 565.973 352.241 567.45 351.304C568.937 350.366 570.665 349.898 572.635 349.898C574.605 349.898 576.328 350.366 577.805 351.304C579.292 352.241 580.447 353.558 581.271 355.253C582.105 356.948 582.521 358.932 582.521 361.205C582.521 363.458 582.105 365.428 581.271 367.114C580.447 368.799 579.292 370.111 577.805 371.048C576.328 371.986 574.605 372.455 572.635 372.455ZM572.635 369.443C574.131 369.443 575.362 369.06 576.328 368.293C577.294 367.526 578.009 366.517 578.473 365.267C578.937 364.017 579.169 362.663 579.169 361.205C579.169 359.746 578.937 358.387 578.473 357.128C578.009 355.868 577.294 354.85 576.328 354.074C575.362 353.297 574.131 352.909 572.635 352.909C571.139 352.909 569.908 353.297 568.942 354.074C567.976 354.85 567.261 355.868 566.797 357.128C566.333 358.387 566.101 359.746 566.101 361.205C566.101 362.663 566.333 364.017 566.797 365.267C567.261 366.517 567.976 367.526 568.942 368.293C569.908 369.06 571.139 369.443 572.635 369.443ZM598.888 372V350.182H602.127V353.591H602.411C602.866 352.426 603.6 351.522 604.613 350.878C605.626 350.224 606.843 349.898 608.263 349.898C609.703 349.898 610.901 350.224 611.857 350.878C612.823 351.522 613.576 352.426 614.116 353.591H614.343C614.902 352.464 615.74 351.569 616.857 350.906C617.975 350.234 619.315 349.898 620.877 349.898C622.828 349.898 624.424 350.509 625.664 351.73C626.905 352.942 627.525 354.831 627.525 357.398V372H624.173V357.398C624.173 355.788 623.732 354.637 622.852 353.946C621.971 353.255 620.934 352.909 619.741 352.909C618.207 352.909 617.018 353.373 616.175 354.301C615.333 355.22 614.911 356.384 614.911 357.795V372H611.502V357.057C611.502 355.816 611.1 354.817 610.295 354.06C609.49 353.293 608.453 352.909 607.184 352.909C606.313 352.909 605.498 353.141 604.741 353.605C603.993 354.069 603.387 354.713 602.923 355.537C602.468 356.351 602.241 357.294 602.241 358.364V372H598.888ZM642.518 372.455C640.548 372.455 638.82 371.986 637.333 371.048C635.856 370.111 634.701 368.799 633.867 367.114C633.043 365.428 632.631 363.458 632.631 361.205C632.631 358.932 633.043 356.948 633.867 355.253C634.701 353.558 635.856 352.241 637.333 351.304C638.82 350.366 640.548 349.898 642.518 349.898C644.487 349.898 646.211 350.366 647.688 351.304C649.175 352.241 650.33 353.558 651.154 355.253C651.987 356.948 652.404 358.932 652.404 361.205C652.404 363.458 651.987 365.428 651.154 367.114C650.33 368.799 649.175 370.111 647.688 371.048C646.211 371.986 644.487 372.455 642.518 372.455ZM642.518 369.443C644.014 369.443 645.245 369.06 646.211 368.293C647.177 367.526 647.892 366.517 648.356 365.267C648.82 364.017 649.052 362.663 649.052 361.205C649.052 359.746 648.82 358.387 648.356 357.128C647.892 355.868 647.177 354.85 646.211 354.074C645.245 353.297 644.014 352.909 642.518 352.909C641.022 352.909 639.79 353.297 638.825 354.074C637.859 354.85 637.144 355.868 636.68 357.128C636.216 358.387 635.984 359.746 635.984 361.205C635.984 362.663 636.216 364.017 636.68 365.267C637.144 366.517 637.859 367.526 638.825 368.293C639.79 369.06 641.022 369.443 642.518 369.443ZM665.76 372.455C663.942 372.455 662.337 371.995 660.945 371.077C659.553 370.149 658.464 368.842 657.678 367.156C656.892 365.461 656.499 363.458 656.499 361.148C656.499 358.856 656.892 356.867 657.678 355.182C658.464 353.496 659.557 352.194 660.959 351.276C662.36 350.357 663.98 349.898 665.817 349.898C667.237 349.898 668.359 350.134 669.183 350.608C670.017 351.072 670.651 351.602 671.087 352.199C671.532 352.786 671.877 353.269 672.124 353.648H672.408V342.909H675.76V372H672.521V368.648H672.124C671.877 369.045 671.527 369.547 671.072 370.153C670.618 370.75 669.969 371.285 669.126 371.759C668.284 372.223 667.161 372.455 665.76 372.455ZM666.214 369.443C667.559 369.443 668.696 369.093 669.624 368.392C670.552 367.682 671.257 366.702 671.74 365.452C672.223 364.192 672.464 362.739 672.464 361.091C672.464 359.462 672.228 358.037 671.754 356.815C671.281 355.584 670.58 354.628 669.652 353.946C668.724 353.255 667.578 352.909 666.214 352.909C664.794 352.909 663.61 353.274 662.663 354.003C661.726 354.723 661.02 355.703 660.547 356.943C660.083 358.174 659.851 359.557 659.851 361.091C659.851 362.644 660.088 364.055 660.561 365.324C661.044 366.583 661.754 367.587 662.692 368.335C663.639 369.074 664.813 369.443 666.214 369.443ZM697.82 355.068L694.808 355.92C694.619 355.419 694.339 354.931 693.97 354.457C693.61 353.974 693.118 353.577 692.493 353.264C691.868 352.952 691.068 352.795 690.092 352.795C688.757 352.795 687.644 353.103 686.754 353.719C685.874 354.325 685.433 355.097 685.433 356.034C685.433 356.867 685.736 357.526 686.342 358.009C686.948 358.491 687.895 358.894 689.183 359.216L692.422 360.011C694.373 360.485 695.826 361.209 696.783 362.185C697.739 363.151 698.217 364.396 698.217 365.92C698.217 367.17 697.857 368.288 697.138 369.273C696.428 370.258 695.433 371.034 694.155 371.602C692.876 372.17 691.39 372.455 689.695 372.455C687.469 372.455 685.627 371.972 684.169 371.006C682.711 370.04 681.787 368.629 681.399 366.773L684.581 365.977C684.884 367.152 685.457 368.032 686.3 368.619C687.152 369.206 688.265 369.5 689.638 369.5C691.2 369.5 692.441 369.169 693.359 368.506C694.287 367.833 694.751 367.028 694.751 366.091C694.751 365.333 694.486 364.699 693.956 364.188C693.426 363.667 692.611 363.278 691.513 363.023L687.876 362.17C685.878 361.697 684.411 360.963 683.473 359.969C682.545 358.965 682.081 357.71 682.081 356.205C682.081 354.973 682.427 353.884 683.118 352.938C683.819 351.991 684.77 351.247 685.973 350.707C687.185 350.168 688.558 349.898 690.092 349.898C692.251 349.898 693.946 350.371 695.178 351.318C696.418 352.265 697.299 353.515 697.82 355.068ZM714.513 372V350.182H717.866V372H714.513ZM716.218 346.545C715.565 346.545 715.001 346.323 714.528 345.878C714.064 345.433 713.832 344.898 713.832 344.273C713.832 343.648 714.064 343.113 714.528 342.668C715.001 342.223 715.565 342 716.218 342C716.871 342 717.43 342.223 717.894 342.668C718.368 343.113 718.604 343.648 718.604 344.273C718.604 344.898 718.368 345.433 717.894 345.878C717.43 346.323 716.871 346.545 716.218 346.545ZM727.358 358.875V372H724.006V350.182H727.244V353.591H727.528C728.04 352.483 728.816 351.593 729.858 350.92C730.9 350.239 732.244 349.898 733.892 349.898C735.369 349.898 736.662 350.201 737.77 350.807C738.878 351.403 739.74 352.312 740.355 353.534C740.971 354.746 741.278 356.28 741.278 358.136V372H737.926V358.364C737.926 356.65 737.481 355.314 736.591 354.358C735.701 353.392 734.479 352.909 732.926 352.909C731.856 352.909 730.9 353.141 730.057 353.605C729.223 354.069 728.565 354.746 728.082 355.636C727.599 356.527 727.358 357.606 727.358 358.875ZM759.109 372V342.909H768.938C771.211 342.909 773.076 343.297 774.535 344.074C775.993 344.841 777.073 345.897 777.773 347.241C778.474 348.586 778.825 350.116 778.825 351.83C778.825 353.544 778.474 355.063 777.773 356.389C777.073 357.715 775.998 358.757 774.549 359.514C773.1 360.262 771.249 360.636 768.995 360.636H761.04V357.455H768.881C770.434 357.455 771.684 357.227 772.631 356.773C773.588 356.318 774.279 355.674 774.705 354.841C775.141 353.998 775.359 352.994 775.359 351.83C775.359 350.665 775.141 349.647 774.705 348.776C774.27 347.904 773.574 347.232 772.617 346.759C771.661 346.276 770.397 346.034 768.825 346.034H762.631V372H759.109ZM772.802 358.932L779.961 372H775.87L768.825 358.932H772.802ZM797.99 363.08V350.182H801.342V372H797.99V368.307H797.763C797.251 369.415 796.456 370.357 795.376 371.134C794.297 371.901 792.933 372.284 791.286 372.284C789.922 372.284 788.71 371.986 787.649 371.389C786.589 370.783 785.755 369.874 785.149 368.662C784.543 367.44 784.24 365.902 784.24 364.045V350.182H787.592V363.818C787.592 365.409 788.037 366.678 788.928 367.625C789.827 368.572 790.973 369.045 792.365 369.045C793.198 369.045 794.046 368.832 794.908 368.406C795.779 367.98 796.508 367.327 797.095 366.446C797.692 365.565 797.99 364.443 797.99 363.08ZM822.937 355.068L819.925 355.92C819.736 355.419 819.457 354.931 819.087 354.457C818.728 353.974 818.235 353.577 817.61 353.264C816.985 352.952 816.185 352.795 815.21 352.795C813.874 352.795 812.762 353.103 811.871 353.719C810.991 354.325 810.55 355.097 810.55 356.034C810.55 356.867 810.853 357.526 811.46 358.009C812.066 358.491 813.013 358.894 814.3 359.216L817.539 360.011C819.49 360.485 820.943 361.209 821.9 362.185C822.856 363.151 823.335 364.396 823.335 365.92C823.335 367.17 822.975 368.288 822.255 369.273C821.545 370.258 820.55 371.034 819.272 371.602C817.994 372.17 816.507 372.455 814.812 372.455C812.586 372.455 810.745 371.972 809.286 371.006C807.828 370.04 806.905 368.629 806.516 366.773L809.698 365.977C810.001 367.152 810.574 368.032 811.417 368.619C812.269 369.206 813.382 369.5 814.755 369.5C816.317 369.5 817.558 369.169 818.477 368.506C819.405 367.833 819.869 367.028 819.869 366.091C819.869 365.333 819.603 364.699 819.073 364.188C818.543 363.667 817.728 363.278 816.63 363.023L812.994 362.17C810.996 361.697 809.528 360.963 808.59 359.969C807.662 358.965 807.198 357.71 807.198 356.205C807.198 354.973 807.544 353.884 808.235 352.938C808.936 351.991 809.888 351.247 811.09 350.707C812.302 350.168 813.675 349.898 815.21 349.898C817.369 349.898 819.064 350.371 820.295 351.318C821.535 352.265 822.416 353.515 822.937 355.068ZM837.869 350.182V353.023H826.562V350.182H837.869ZM829.858 344.955H833.21V365.75C833.21 366.697 833.348 367.407 833.622 367.881C833.906 368.345 834.266 368.657 834.702 368.818C835.147 368.97 835.616 369.045 836.108 369.045C836.477 369.045 836.78 369.027 837.017 368.989C837.254 368.941 837.443 368.903 837.585 368.875L838.267 371.886C838.04 371.972 837.723 372.057 837.315 372.142C836.908 372.237 836.392 372.284 835.767 372.284C834.82 372.284 833.892 372.08 832.983 371.673C832.083 371.266 831.335 370.646 830.739 369.812C830.152 368.979 829.858 367.928 829.858 366.659V344.955Z" fill="#B5B5B5"/>
</g>
<defs>
<clipPath id="clip0_71_35">
<rect width="1200" height="630" fill="white"/>
</clipPath>
<clipPath id="clip1_71_35">
<rect x="64" y="187" width="256" height="256" rx="128" fill="white"/>
</clipPath>
</defs>
</svg>
