<svg width="1200" height="630" viewBox="0 0 1200 630" fill="none" xmlns="http://www.w3.org/2000/svg">
<rect width="1200" height="630" fill="#17181C"/>
<g clip-path="url(#clip0_71_35)">
<path d="M285.5 167L413.239 240.75V388.25L285.5 462L157.761 388.25V240.75L285.5 167Z" fill="#F47B4F"/>
<mask id="mask0_71_35" style="mask-type:alpha" maskUnits="userSpaceOnUse" x="193" y="222" width="184" height="184">
<rect x="193.889" y="222.889" width="182.646" height="182.646" fill="#D9D9D9"/>
</mask>
<g mask="url(#mask0_71_35)">
<path d="M264.285 390.315L261.241 365.962C259.592 365.327 258.039 364.566 256.58 363.679C255.121 362.791 253.694 361.839 252.299 360.825L229.659 370.338L208.73 334.189L228.327 319.349C228.2 318.461 228.137 317.605 228.137 316.78V311.643C228.137 310.819 228.2 309.963 228.327 309.075L208.73 294.235L229.659 258.086L252.299 267.599C253.694 266.584 255.153 265.633 256.675 264.745C258.197 263.857 259.719 263.096 261.241 262.462L264.285 238.109H306.142L309.186 262.462C310.835 263.096 312.389 263.857 313.847 264.745C315.306 265.633 316.733 266.584 318.128 267.599L340.769 258.086L361.697 294.235L342.1 309.075C342.227 309.963 342.291 310.819 342.291 311.643V316.78C342.291 317.605 342.164 318.461 341.91 319.349L361.507 334.189L340.578 370.338L318.128 360.825C316.733 361.839 315.274 362.791 313.752 363.679C312.23 364.566 310.708 365.327 309.186 365.962L306.142 390.315H264.285ZM285.594 340.848C292.951 340.848 299.229 338.248 304.43 333.047C309.63 327.847 312.23 321.568 312.23 314.212C312.23 306.855 309.63 300.577 304.43 295.376C299.229 290.176 292.951 287.576 285.594 287.576C278.111 287.576 271.801 290.176 266.664 295.376C261.527 300.577 258.958 306.855 258.958 314.212C258.958 321.568 261.527 327.847 266.664 333.047C271.801 338.248 278.111 340.848 285.594 340.848Z" fill="#17181C"/>
</g>
</g>
<path d="M464.773 263.636V271.818H435.182V263.636H464.773ZM443.295 316V257.568C443.295 254.295 444.011 251.58 445.443 249.42C446.875 247.239 448.773 245.614 451.136 244.545C453.5 243.455 456.068 242.909 458.841 242.909C460.886 242.909 462.636 243.08 464.091 243.42C465.545 243.739 466.625 244.034 467.33 244.307L464.943 252.557C464.466 252.42 463.852 252.261 463.102 252.08C462.352 251.875 461.443 251.773 460.375 251.773C457.898 251.773 456.125 252.386 455.057 253.614C454.011 254.841 453.489 256.614 453.489 258.932V316H443.295ZM488.935 317.159C485.616 317.159 482.616 316.545 479.935 315.318C477.253 314.068 475.128 312.261 473.56 309.898C472.014 307.534 471.241 304.636 471.241 301.205C471.241 298.25 471.81 295.818 472.946 293.909C474.082 292 475.616 290.489 477.548 289.375C479.48 288.261 481.639 287.42 484.026 286.852C486.412 286.284 488.844 285.852 491.321 285.557C494.457 285.193 497.003 284.898 498.957 284.67C500.912 284.42 502.332 284.023 503.219 283.477C504.105 282.932 504.548 282.045 504.548 280.818V280.58C504.548 277.602 503.707 275.295 502.026 273.659C500.366 272.023 497.889 271.205 494.594 271.205C491.162 271.205 488.457 271.966 486.48 273.489C484.526 274.989 483.173 276.659 482.423 278.5L472.844 276.318C473.98 273.136 475.639 270.568 477.821 268.614C480.026 266.636 482.56 265.205 485.423 264.318C488.287 263.409 491.298 262.955 494.457 262.955C496.548 262.955 498.764 263.205 501.105 263.705C503.469 264.182 505.673 265.068 507.719 266.364C509.787 267.659 511.48 269.511 512.798 271.92C514.116 274.307 514.776 277.409 514.776 281.227V316H504.821V308.841H504.412C503.753 310.159 502.764 311.455 501.446 312.727C500.128 314 498.435 315.057 496.366 315.898C494.298 316.739 491.821 317.159 488.935 317.159ZM491.151 308.977C493.969 308.977 496.378 308.42 498.378 307.307C500.401 306.193 501.935 304.739 502.98 302.943C504.048 301.125 504.582 299.182 504.582 297.114V290.364C504.219 290.727 503.514 291.068 502.469 291.386C501.446 291.682 500.276 291.943 498.957 292.17C497.639 292.375 496.355 292.568 495.105 292.75C493.855 292.909 492.81 293.045 491.969 293.159C489.991 293.409 488.185 293.83 486.548 294.42C484.935 295.011 483.639 295.864 482.662 296.977C481.707 298.068 481.23 299.523 481.23 301.341C481.23 303.864 482.162 305.773 484.026 307.068C485.889 308.341 488.264 308.977 491.151 308.977ZM550.409 317.057C545.341 317.057 540.977 315.909 537.318 313.614C533.682 311.295 530.886 308.102 528.932 304.034C526.977 299.966 526 295.307 526 290.057C526 284.739 527 280.045 529 275.977C531 271.886 533.818 268.693 537.455 266.398C541.091 264.102 545.375 262.955 550.307 262.955C554.284 262.955 557.83 263.693 560.943 265.17C564.057 266.625 566.568 268.67 568.477 271.307C570.409 273.943 571.557 277.023 571.92 280.545H562C561.455 278.091 560.205 275.977 558.25 274.205C556.318 272.432 553.727 271.545 550.477 271.545C547.636 271.545 545.148 272.295 543.011 273.795C540.898 275.273 539.25 277.386 538.068 280.136C536.886 282.864 536.295 286.091 536.295 289.818C536.295 293.636 536.875 296.932 538.034 299.705C539.193 302.477 540.83 304.625 542.943 306.148C545.08 307.67 547.591 308.432 550.477 308.432C552.409 308.432 554.159 308.08 555.727 307.375C557.318 306.648 558.648 305.614 559.716 304.273C560.807 302.932 561.568 301.318 562 299.432H571.92C571.557 302.818 570.455 305.841 568.614 308.5C566.773 311.159 564.307 313.25 561.216 314.773C558.148 316.295 554.545 317.057 550.409 317.057ZM607.264 263.636V271.818H578.662V263.636H607.264ZM586.332 251.091H596.526V300.625C596.526 302.602 596.821 304.091 597.412 305.091C598.003 306.068 598.764 306.739 599.696 307.102C600.651 307.443 601.685 307.614 602.798 307.614C603.616 307.614 604.332 307.557 604.946 307.443C605.56 307.33 606.037 307.239 606.378 307.17L608.219 315.591C607.628 315.818 606.787 316.045 605.696 316.273C604.605 316.523 603.241 316.659 601.605 316.682C598.923 316.727 596.423 316.25 594.105 315.25C591.787 314.25 589.912 312.705 588.48 310.614C587.048 308.523 586.332 305.898 586.332 302.739V251.091ZM640.034 317.057C635.125 317.057 630.841 315.932 627.182 313.682C623.523 311.432 620.682 308.284 618.659 304.239C616.636 300.193 615.625 295.466 615.625 290.057C615.625 284.625 616.636 279.875 618.659 275.807C620.682 271.739 623.523 268.58 627.182 266.33C630.841 264.08 635.125 262.955 640.034 262.955C644.943 262.955 649.227 264.08 652.886 266.33C656.545 268.58 659.386 271.739 661.409 275.807C663.432 279.875 664.443 284.625 664.443 290.057C664.443 295.466 663.432 300.193 661.409 304.239C659.386 308.284 656.545 311.432 652.886 313.682C649.227 315.932 644.943 317.057 640.034 317.057ZM640.068 308.5C643.25 308.5 645.886 307.659 647.977 305.977C650.068 304.295 651.614 302.057 652.614 299.261C653.636 296.466 654.148 293.386 654.148 290.023C654.148 286.682 653.636 283.614 652.614 280.818C651.614 278 650.068 275.739 647.977 274.034C645.886 272.33 643.25 271.477 640.068 271.477C636.864 271.477 634.205 272.33 632.091 274.034C630 275.739 628.443 278 627.42 280.818C626.42 283.614 625.92 286.682 625.92 290.023C625.92 293.386 626.42 296.466 627.42 299.261C628.443 302.057 630 304.295 632.091 305.977C634.205 307.659 636.864 308.5 640.068 308.5ZM675.821 316V263.636H685.673V271.955H686.219C687.173 269.136 688.855 266.92 691.264 265.307C693.696 263.67 696.446 262.852 699.514 262.852C700.151 262.852 700.901 262.875 701.764 262.92C702.651 262.966 703.344 263.023 703.844 263.091V272.841C703.435 272.727 702.707 272.602 701.662 272.466C700.616 272.307 699.571 272.227 698.526 272.227C696.116 272.227 693.969 272.739 692.082 273.761C690.219 274.761 688.741 276.159 687.651 277.955C686.56 279.727 686.014 281.75 686.014 284.023V316H675.821ZM712.665 316V263.636H722.858V316H712.665ZM717.812 255.557C716.04 255.557 714.517 254.966 713.244 253.784C711.994 252.58 711.369 251.148 711.369 249.489C711.369 247.807 711.994 246.375 713.244 245.193C714.517 243.989 716.04 243.386 717.812 243.386C719.585 243.386 721.097 243.989 722.347 245.193C723.619 246.375 724.256 247.807 724.256 249.489C724.256 251.148 723.619 252.58 722.347 253.784C721.097 254.966 719.585 255.557 717.812 255.557ZM758.628 317.057C753.719 317.057 749.435 315.932 745.776 313.682C742.116 311.432 739.276 308.284 737.253 304.239C735.23 300.193 734.219 295.466 734.219 290.057C734.219 284.625 735.23 279.875 737.253 275.807C739.276 271.739 742.116 268.58 745.776 266.33C749.435 264.08 753.719 262.955 758.628 262.955C763.537 262.955 767.821 264.08 771.48 266.33C775.139 268.58 777.98 271.739 780.003 275.807C782.026 279.875 783.037 284.625 783.037 290.057C783.037 295.466 782.026 300.193 780.003 304.239C777.98 308.284 775.139 311.432 771.48 313.682C767.821 315.932 763.537 317.057 758.628 317.057ZM758.662 308.5C761.844 308.5 764.48 307.659 766.571 305.977C768.662 304.295 770.207 302.057 771.207 299.261C772.23 296.466 772.741 293.386 772.741 290.023C772.741 286.682 772.23 283.614 771.207 280.818C770.207 278 768.662 275.739 766.571 274.034C764.48 272.33 761.844 271.477 758.662 271.477C755.457 271.477 752.798 272.33 750.685 274.034C748.594 275.739 747.037 278 746.014 280.818C745.014 283.614 744.514 286.682 744.514 290.023C744.514 293.386 745.014 296.466 746.014 299.261C747.037 302.057 748.594 304.295 750.685 305.977C752.798 307.659 755.457 308.5 758.662 308.5ZM825.267 282.08V290.909H794.312V282.08H825.267ZM838.852 316V263.636H848.705V271.955H849.25C850.205 269.136 851.886 266.92 854.295 265.307C856.727 263.67 859.477 262.852 862.545 262.852C863.182 262.852 863.932 262.875 864.795 262.92C865.682 262.966 866.375 263.023 866.875 263.091V272.841C866.466 272.727 865.739 272.602 864.693 272.466C863.648 272.307 862.602 272.227 861.557 272.227C859.148 272.227 857 272.739 855.114 273.761C853.25 274.761 851.773 276.159 850.682 277.955C849.591 279.727 849.045 281.75 849.045 284.023V316H838.852ZM914.935 276.42L905.696 278.057C905.31 276.875 904.696 275.75 903.855 274.682C903.037 273.614 901.923 272.739 900.514 272.057C899.105 271.375 897.344 271.034 895.23 271.034C892.344 271.034 889.935 271.682 888.003 272.977C886.071 274.25 885.105 275.898 885.105 277.92C885.105 279.67 885.753 281.08 887.048 282.148C888.344 283.216 890.435 284.091 893.321 284.773L901.639 286.682C906.457 287.795 910.048 289.511 912.412 291.83C914.776 294.148 915.957 297.159 915.957 300.864C915.957 304 915.048 306.795 913.23 309.25C911.435 311.682 908.923 313.591 905.696 314.977C902.491 316.364 898.776 317.057 894.548 317.057C888.685 317.057 883.901 315.807 880.196 313.307C876.491 310.784 874.219 307.205 873.378 302.568L883.23 301.068C883.844 303.636 885.105 305.58 887.014 306.898C888.923 308.193 891.412 308.841 894.48 308.841C897.821 308.841 900.491 308.148 902.491 306.761C904.491 305.352 905.491 303.636 905.491 301.614C905.491 299.977 904.878 298.602 903.651 297.489C902.446 296.375 900.594 295.534 898.094 294.966L889.23 293.023C884.344 291.909 880.73 290.136 878.389 287.705C876.071 285.273 874.912 282.193 874.912 278.466C874.912 275.375 875.776 272.67 877.503 270.352C879.23 268.034 881.616 266.227 884.662 264.932C887.707 263.614 891.196 262.955 895.128 262.955C900.787 262.955 905.241 264.182 908.491 266.636C911.741 269.068 913.889 272.33 914.935 276.42Z" fill="white"/>
<path d="M441.807 383L433.852 353.909H437.432L443.511 377.602H443.795L449.989 353.909H453.966L460.159 377.602H460.443L466.523 353.909H470.102L462.148 383H458.511L452.091 359.818H451.864L445.443 383H441.807ZM472.67 383V361.182H475.908V364.477H476.136C476.533 363.398 477.253 362.522 478.295 361.849C479.336 361.177 480.511 360.841 481.817 360.841C482.064 360.841 482.371 360.846 482.741 360.855C483.11 360.865 483.389 360.879 483.579 360.898V364.307C483.465 364.278 483.205 364.236 482.798 364.179C482.4 364.113 481.978 364.08 481.533 364.08C480.473 364.08 479.526 364.302 478.692 364.747C477.869 365.183 477.215 365.789 476.732 366.565C476.259 367.332 476.022 368.208 476.022 369.193V383H472.67ZM487.553 383V361.182H490.905V383H487.553ZM489.257 357.545C488.604 357.545 488.04 357.323 487.567 356.878C487.103 356.433 486.871 355.898 486.871 355.273C486.871 354.648 487.103 354.113 487.567 353.668C488.04 353.223 488.604 353 489.257 353C489.911 353 490.469 353.223 490.933 353.668C491.407 354.113 491.643 354.648 491.643 355.273C491.643 355.898 491.407 356.433 490.933 356.878C490.469 357.323 489.911 357.545 489.257 357.545ZM506.533 361.182V364.023H495.227V361.182H506.533ZM498.522 355.955H501.874V376.75C501.874 377.697 502.012 378.407 502.286 378.881C502.57 379.345 502.93 379.657 503.366 379.818C503.811 379.97 504.28 380.045 504.772 380.045C505.141 380.045 505.444 380.027 505.681 379.989C505.918 379.941 506.107 379.903 506.249 379.875L506.931 382.886C506.704 382.972 506.387 383.057 505.979 383.142C505.572 383.237 505.056 383.284 504.431 383.284C503.484 383.284 502.556 383.08 501.647 382.673C500.747 382.266 499.999 381.646 499.403 380.812C498.816 379.979 498.522 378.928 498.522 377.659V355.955ZM520.489 383.455C518.387 383.455 516.574 382.991 515.049 382.062C513.534 381.125 512.364 379.818 511.54 378.142C510.726 376.456 510.319 374.496 510.319 372.261C510.319 370.027 510.726 368.057 511.54 366.352C512.364 364.638 513.51 363.303 514.978 362.347C516.455 361.381 518.179 360.898 520.148 360.898C521.285 360.898 522.407 361.087 523.515 361.466C524.623 361.845 525.631 362.46 526.54 363.312C527.45 364.155 528.174 365.273 528.714 366.665C529.254 368.057 529.523 369.771 529.523 371.807V373.227H512.705V370.33H526.114C526.114 369.098 525.868 368 525.376 367.034C524.893 366.068 524.201 365.306 523.302 364.747C522.412 364.188 521.361 363.909 520.148 363.909C518.813 363.909 517.658 364.241 516.683 364.903C515.717 365.557 514.973 366.409 514.452 367.46C513.932 368.511 513.671 369.638 513.671 370.841V372.773C513.671 374.42 513.955 375.817 514.523 376.963C515.101 378.099 515.901 378.966 516.924 379.562C517.947 380.15 519.135 380.443 520.489 380.443C521.37 380.443 522.165 380.32 522.876 380.074C523.595 379.818 524.216 379.439 524.737 378.938C525.257 378.426 525.66 377.792 525.944 377.034L529.183 377.943C528.842 379.042 528.269 380.008 527.464 380.841C526.659 381.665 525.665 382.309 524.481 382.773C523.297 383.227 521.967 383.455 520.489 383.455ZM546.327 383V353.909H563.771V357.034H549.85V366.864H562.464V369.989H549.85V383H546.327ZM575.77 383.511C574.387 383.511 573.133 383.251 572.006 382.73C570.879 382.2 569.984 381.438 569.321 380.443C568.658 379.439 568.327 378.227 568.327 376.807C568.327 375.557 568.573 374.544 569.065 373.767C569.558 372.981 570.216 372.366 571.04 371.92C571.864 371.475 572.773 371.144 573.767 370.926C574.771 370.699 575.779 370.519 576.793 370.386C578.118 370.216 579.193 370.088 580.017 370.003C580.85 369.908 581.456 369.752 581.835 369.534C582.223 369.316 582.418 368.937 582.418 368.398V368.284C582.418 366.883 582.034 365.794 581.267 365.017C580.509 364.241 579.359 363.852 577.815 363.852C576.215 363.852 574.96 364.203 574.051 364.903C573.142 365.604 572.503 366.352 572.134 367.148L568.952 366.011C569.52 364.686 570.277 363.653 571.224 362.915C572.181 362.167 573.223 361.646 574.349 361.352C575.486 361.049 576.603 360.898 577.702 360.898C578.402 360.898 579.207 360.983 580.116 361.153C581.035 361.314 581.92 361.651 582.773 362.162C583.634 362.673 584.349 363.445 584.918 364.477C585.486 365.509 585.77 366.892 585.77 368.625V383H582.418V380.045H582.247C582.02 380.519 581.641 381.026 581.111 381.565C580.58 382.105 579.875 382.564 578.994 382.943C578.114 383.322 577.039 383.511 575.77 383.511ZM576.281 380.5C577.607 380.5 578.724 380.24 579.634 379.719C580.552 379.198 581.243 378.526 581.707 377.702C582.181 376.878 582.418 376.011 582.418 375.102V372.034C582.276 372.205 581.963 372.361 581.48 372.503C581.007 372.635 580.457 372.754 579.832 372.858C579.217 372.953 578.616 373.038 578.028 373.114C577.451 373.18 576.982 373.237 576.622 373.284C575.751 373.398 574.937 373.582 574.179 373.838C573.431 374.084 572.825 374.458 572.361 374.96C571.906 375.453 571.679 376.125 571.679 376.977C571.679 378.142 572.11 379.023 572.972 379.619C573.843 380.206 574.946 380.5 576.281 380.5ZM600.752 383.455C598.707 383.455 596.945 382.972 595.468 382.006C593.991 381.04 592.854 379.709 592.059 378.014C591.263 376.319 590.866 374.383 590.866 372.205C590.866 369.989 591.273 368.033 592.087 366.338C592.911 364.634 594.057 363.303 595.525 362.347C597.002 361.381 598.726 360.898 600.695 360.898C602.229 360.898 603.612 361.182 604.843 361.75C606.074 362.318 607.083 363.114 607.869 364.136C608.655 365.159 609.142 366.352 609.332 367.716H605.979C605.724 366.722 605.156 365.841 604.275 365.074C603.404 364.297 602.229 363.909 600.752 363.909C599.445 363.909 598.299 364.25 597.315 364.932C596.339 365.604 595.577 366.556 595.028 367.787C594.488 369.009 594.218 370.443 594.218 372.091C594.218 373.777 594.483 375.244 595.013 376.494C595.553 377.744 596.311 378.715 597.286 379.406C598.271 380.098 599.426 380.443 600.752 380.443C601.623 380.443 602.414 380.292 603.124 379.989C603.835 379.686 604.436 379.25 604.928 378.682C605.421 378.114 605.771 377.432 605.979 376.636H609.332C609.142 377.924 608.674 379.084 607.925 380.116C607.187 381.139 606.207 381.954 604.985 382.56C603.773 383.156 602.362 383.455 600.752 383.455ZM623.721 361.182V364.023H612.414V361.182H623.721ZM615.71 355.955H619.062V376.75C619.062 377.697 619.199 378.407 619.474 378.881C619.758 379.345 620.118 379.657 620.553 379.818C620.998 379.97 621.467 380.045 621.96 380.045C622.329 380.045 622.632 380.027 622.869 379.989C623.105 379.941 623.295 379.903 623.437 379.875L624.119 382.886C623.891 382.972 623.574 383.057 623.167 383.142C622.76 383.237 622.244 383.284 621.619 383.284C620.672 383.284 619.744 383.08 618.835 382.673C617.935 382.266 617.187 381.646 616.59 380.812C616.003 379.979 615.71 378.928 615.71 377.659V355.955ZM637.393 383.455C635.423 383.455 633.695 382.986 632.208 382.048C630.731 381.111 629.576 379.799 628.742 378.114C627.918 376.428 627.506 374.458 627.506 372.205C627.506 369.932 627.918 367.948 628.742 366.253C629.576 364.558 630.731 363.241 632.208 362.304C633.695 361.366 635.423 360.898 637.393 360.898C639.362 360.898 641.086 361.366 642.563 362.304C644.05 363.241 645.205 364.558 646.029 366.253C646.862 367.948 647.279 369.932 647.279 372.205C647.279 374.458 646.862 376.428 646.029 378.114C645.205 379.799 644.05 381.111 642.563 382.048C641.086 382.986 639.362 383.455 637.393 383.455ZM637.393 380.443C638.889 380.443 640.12 380.06 641.086 379.293C642.052 378.526 642.767 377.517 643.231 376.267C643.695 375.017 643.927 373.663 643.927 372.205C643.927 370.746 643.695 369.387 643.231 368.128C642.767 366.868 642.052 365.85 641.086 365.074C640.12 364.297 638.889 363.909 637.393 363.909C635.897 363.909 634.665 364.297 633.7 365.074C632.734 365.85 632.019 366.868 631.555 368.128C631.091 369.387 630.859 370.746 630.859 372.205C630.859 373.663 631.091 375.017 631.555 376.267C632.019 377.517 632.734 378.526 633.7 379.293C634.665 380.06 635.897 380.443 637.393 380.443ZM652.396 383V361.182H655.635V364.477H655.862C656.26 363.398 656.98 362.522 658.021 361.849C659.063 361.177 660.237 360.841 661.544 360.841C661.79 360.841 662.098 360.846 662.467 360.855C662.837 360.865 663.116 360.879 663.305 360.898V364.307C663.192 364.278 662.931 364.236 662.524 364.179C662.126 364.113 661.705 364.08 661.26 364.08C660.199 364.08 659.252 364.302 658.419 364.747C657.595 365.183 656.942 365.789 656.459 366.565C655.985 367.332 655.749 368.208 655.749 369.193V383H652.396ZM667.279 383V361.182H670.631V383H667.279ZM668.984 357.545C668.33 357.545 667.767 357.323 667.293 356.878C666.829 356.433 666.597 355.898 666.597 355.273C666.597 354.648 666.829 354.113 667.293 353.668C667.767 353.223 668.33 353 668.984 353C669.637 353 670.196 353.223 670.66 353.668C671.133 354.113 671.37 354.648 671.37 355.273C671.37 355.898 671.133 356.433 670.66 356.878C670.196 357.323 669.637 357.545 668.984 357.545ZM685.635 383.455C683.665 383.455 681.937 382.986 680.45 382.048C678.973 381.111 677.818 379.799 676.984 378.114C676.161 376.428 675.749 374.458 675.749 372.205C675.749 369.932 676.161 367.948 676.984 366.253C677.818 364.558 678.973 363.241 680.45 362.304C681.937 361.366 683.665 360.898 685.635 360.898C687.605 360.898 689.328 361.366 690.805 362.304C692.292 363.241 693.447 364.558 694.271 366.253C695.105 367.948 695.521 369.932 695.521 372.205C695.521 374.458 695.105 376.428 694.271 378.114C693.447 379.799 692.292 381.111 690.805 382.048C689.328 382.986 687.605 383.455 685.635 383.455ZM685.635 380.443C687.131 380.443 688.362 380.06 689.328 379.293C690.294 378.526 691.009 377.517 691.473 376.267C691.937 375.017 692.169 373.663 692.169 372.205C692.169 370.746 691.937 369.387 691.473 368.128C691.009 366.868 690.294 365.85 689.328 365.074C688.362 364.297 687.131 363.909 685.635 363.909C684.139 363.909 682.908 364.297 681.942 365.074C680.976 365.85 680.261 366.868 679.797 368.128C679.333 369.387 679.101 370.746 679.101 372.205C679.101 373.663 679.333 375.017 679.797 376.267C680.261 377.517 680.976 378.526 681.942 379.293C682.908 380.06 684.139 380.443 685.635 380.443ZM711.888 383V361.182H715.127V364.591H715.411C715.866 363.426 716.6 362.522 717.613 361.878C718.626 361.224 719.843 360.898 721.263 360.898C722.703 360.898 723.901 361.224 724.857 361.878C725.823 362.522 726.576 363.426 727.116 364.591H727.343C727.902 363.464 728.74 362.569 729.857 361.906C730.975 361.234 732.315 360.898 733.877 360.898C735.828 360.898 737.424 361.509 738.664 362.73C739.905 363.942 740.525 365.831 740.525 368.398V383H737.173V368.398C737.173 366.788 736.732 365.637 735.852 364.946C734.971 364.255 733.934 363.909 732.741 363.909C731.207 363.909 730.018 364.373 729.175 365.301C728.333 366.22 727.911 367.384 727.911 368.795V383H724.502V368.057C724.502 366.816 724.1 365.817 723.295 365.06C722.49 364.293 721.453 363.909 720.184 363.909C719.313 363.909 718.498 364.141 717.741 364.605C716.993 365.069 716.387 365.713 715.923 366.537C715.468 367.351 715.241 368.294 715.241 369.364V383H711.888ZM755.518 383.455C753.548 383.455 751.82 382.986 750.333 382.048C748.856 381.111 747.701 379.799 746.867 378.114C746.043 376.428 745.631 374.458 745.631 372.205C745.631 369.932 746.043 367.948 746.867 366.253C747.701 364.558 748.856 363.241 750.333 362.304C751.82 361.366 753.548 360.898 755.518 360.898C757.487 360.898 759.211 361.366 760.688 362.304C762.175 363.241 763.33 364.558 764.154 366.253C764.987 367.948 765.404 369.932 765.404 372.205C765.404 374.458 764.987 376.428 764.154 378.114C763.33 379.799 762.175 381.111 760.688 382.048C759.211 382.986 757.487 383.455 755.518 383.455ZM755.518 380.443C757.014 380.443 758.245 380.06 759.211 379.293C760.177 378.526 760.892 377.517 761.356 376.267C761.82 375.017 762.052 373.663 762.052 372.205C762.052 370.746 761.82 369.387 761.356 368.128C760.892 366.868 760.177 365.85 759.211 365.074C758.245 364.297 757.014 363.909 755.518 363.909C754.022 363.909 752.79 364.297 751.825 365.074C750.859 365.85 750.144 366.868 749.68 368.128C749.216 369.387 748.984 370.746 748.984 372.205C748.984 373.663 749.216 375.017 749.68 376.267C750.144 377.517 750.859 378.526 751.825 379.293C752.79 380.06 754.022 380.443 755.518 380.443ZM778.76 383.455C776.942 383.455 775.337 382.995 773.945 382.077C772.553 381.149 771.464 379.842 770.678 378.156C769.892 376.461 769.499 374.458 769.499 372.148C769.499 369.856 769.892 367.867 770.678 366.182C771.464 364.496 772.557 363.194 773.959 362.276C775.36 361.357 776.98 360.898 778.817 360.898C780.237 360.898 781.359 361.134 782.183 361.608C783.017 362.072 783.651 362.602 784.087 363.199C784.532 363.786 784.877 364.269 785.124 364.648H785.408V353.909H788.76V383H785.521V379.648H785.124C784.877 380.045 784.527 380.547 784.072 381.153C783.618 381.75 782.969 382.285 782.126 382.759C781.284 383.223 780.161 383.455 778.76 383.455ZM779.214 380.443C780.559 380.443 781.696 380.093 782.624 379.392C783.552 378.682 784.257 377.702 784.74 376.452C785.223 375.192 785.464 373.739 785.464 372.091C785.464 370.462 785.228 369.037 784.754 367.815C784.281 366.584 783.58 365.628 782.652 364.946C781.724 364.255 780.578 363.909 779.214 363.909C777.794 363.909 776.61 364.274 775.663 365.003C774.726 365.723 774.02 366.703 773.547 367.943C773.083 369.174 772.851 370.557 772.851 372.091C772.851 373.644 773.088 375.055 773.561 376.324C774.044 377.583 774.754 378.587 775.692 379.335C776.639 380.074 777.813 380.443 779.214 380.443ZM810.82 366.068L807.808 366.92C807.619 366.419 807.339 365.931 806.97 365.457C806.61 364.974 806.118 364.577 805.493 364.264C804.868 363.952 804.068 363.795 803.092 363.795C801.757 363.795 800.644 364.103 799.754 364.719C798.874 365.325 798.433 366.097 798.433 367.034C798.433 367.867 798.736 368.526 799.342 369.009C799.948 369.491 800.895 369.894 802.183 370.216L805.422 371.011C807.373 371.485 808.826 372.209 809.783 373.185C810.739 374.151 811.217 375.396 811.217 376.92C811.217 378.17 810.857 379.288 810.138 380.273C809.428 381.258 808.433 382.034 807.155 382.602C805.876 383.17 804.39 383.455 802.695 383.455C800.469 383.455 798.627 382.972 797.169 382.006C795.711 381.04 794.787 379.629 794.399 377.773L797.581 376.977C797.884 378.152 798.457 379.032 799.3 379.619C800.152 380.206 801.265 380.5 802.638 380.5C804.2 380.5 805.441 380.169 806.359 379.506C807.287 378.833 807.751 378.028 807.751 377.091C807.751 376.333 807.486 375.699 806.956 375.188C806.426 374.667 805.611 374.278 804.513 374.023L800.876 373.17C798.878 372.697 797.411 371.963 796.473 370.969C795.545 369.965 795.081 368.71 795.081 367.205C795.081 365.973 795.427 364.884 796.118 363.938C796.819 362.991 797.77 362.247 798.973 361.707C800.185 361.168 801.558 360.898 803.092 360.898C805.251 360.898 806.946 361.371 808.178 362.318C809.418 363.265 810.299 364.515 810.82 366.068ZM827.513 383V361.182H830.866V383H827.513ZM829.218 357.545C828.565 357.545 828.001 357.323 827.528 356.878C827.064 356.433 826.832 355.898 826.832 355.273C826.832 354.648 827.064 354.113 827.528 353.668C828.001 353.223 828.565 353 829.218 353C829.871 353 830.43 353.223 830.894 353.668C831.368 354.113 831.604 354.648 831.604 355.273C831.604 355.898 831.368 356.433 830.894 356.878C830.43 357.323 829.871 357.545 829.218 357.545ZM840.358 369.875V383H837.006V361.182H840.244V364.591H840.528C841.04 363.483 841.816 362.593 842.858 361.92C843.9 361.239 845.244 360.898 846.892 360.898C848.369 360.898 849.662 361.201 850.77 361.807C851.878 362.403 852.74 363.312 853.355 364.534C853.971 365.746 854.278 367.28 854.278 369.136V383H850.926V369.364C850.926 367.65 850.481 366.314 849.591 365.358C848.701 364.392 847.479 363.909 845.926 363.909C844.856 363.909 843.9 364.141 843.057 364.605C842.223 365.069 841.565 365.746 841.082 366.636C840.599 367.527 840.358 368.606 840.358 369.875ZM872.109 383V353.909H881.938C884.211 353.909 886.076 354.297 887.535 355.074C888.993 355.841 890.073 356.897 890.773 358.241C891.474 359.586 891.825 361.116 891.825 362.83C891.825 364.544 891.474 366.063 890.773 367.389C890.073 368.715 888.998 369.757 887.549 370.514C886.1 371.262 884.249 371.636 881.995 371.636H874.04V368.455H881.881C883.434 368.455 884.684 368.227 885.631 367.773C886.588 367.318 887.279 366.674 887.705 365.841C888.141 364.998 888.359 363.994 888.359 362.83C888.359 361.665 888.141 360.647 887.705 359.776C887.27 358.904 886.574 358.232 885.617 357.759C884.661 357.276 883.397 357.034 881.825 357.034H875.631V383H872.109ZM885.802 369.932L892.961 383H888.87L881.825 369.932H885.802ZM910.99 374.08V361.182H914.342V383H910.99V379.307H910.763C910.251 380.415 909.456 381.357 908.376 382.134C907.297 382.901 905.933 383.284 904.286 383.284C902.922 383.284 901.71 382.986 900.649 382.389C899.589 381.783 898.755 380.874 898.149 379.662C897.543 378.44 897.24 376.902 897.24 375.045V361.182H900.592V374.818C900.592 376.409 901.037 377.678 901.928 378.625C902.827 379.572 903.973 380.045 905.365 380.045C906.198 380.045 907.046 379.832 907.908 379.406C908.779 378.98 909.508 378.327 910.095 377.446C910.692 376.565 910.99 375.443 910.99 374.08ZM935.937 366.068L932.925 366.92C932.736 366.419 932.457 365.931 932.087 365.457C931.728 364.974 931.235 364.577 930.61 364.264C929.985 363.952 929.185 363.795 928.21 363.795C926.874 363.795 925.762 364.103 924.871 364.719C923.991 365.325 923.55 366.097 923.55 367.034C923.55 367.867 923.853 368.526 924.46 369.009C925.066 369.491 926.013 369.894 927.3 370.216L930.539 371.011C932.49 371.485 933.943 372.209 934.9 373.185C935.856 374.151 936.335 375.396 936.335 376.92C936.335 378.17 935.975 379.288 935.255 380.273C934.545 381.258 933.55 382.034 932.272 382.602C930.994 383.17 929.507 383.455 927.812 383.455C925.586 383.455 923.745 382.972 922.286 382.006C920.828 381.04 919.905 379.629 919.516 377.773L922.698 376.977C923.001 378.152 923.574 379.032 924.417 379.619C925.269 380.206 926.382 380.5 927.755 380.5C929.317 380.5 930.558 380.169 931.477 379.506C932.405 378.833 932.869 378.028 932.869 377.091C932.869 376.333 932.603 375.699 932.073 375.188C931.543 374.667 930.728 374.278 929.63 374.023L925.994 373.17C923.996 372.697 922.528 371.963 921.59 370.969C920.662 369.965 920.198 368.71 920.198 367.205C920.198 365.973 920.544 364.884 921.235 363.938C921.936 362.991 922.888 362.247 924.09 361.707C925.302 361.168 926.675 360.898 928.21 360.898C930.369 360.898 932.064 361.371 933.295 362.318C934.535 363.265 935.416 364.515 935.937 366.068ZM950.869 361.182V364.023H939.562V361.182H950.869ZM942.858 355.955H946.21V376.75C946.21 377.697 946.348 378.407 946.622 378.881C946.906 379.345 947.266 379.657 947.702 379.818C948.147 379.97 948.616 380.045 949.108 380.045C949.477 380.045 949.78 380.027 950.017 379.989C950.254 379.941 950.443 379.903 950.585 379.875L951.267 382.886C951.04 382.972 950.723 383.057 950.315 383.142C949.908 383.237 949.392 383.284 948.767 383.284C947.82 383.284 946.892 383.08 945.983 382.673C945.083 382.266 944.335 381.646 943.739 380.812C943.152 379.979 942.858 378.928 942.858 377.659V355.955Z" fill="#E8E8E8"/>
<defs>
<clipPath id="clip0_71_35">
<rect x="138" y="167" width="295" height="295" rx="147.5" fill="white"/>
</clipPath>
</defs>
</svg>
